<svg version="1.1" preserveAspectRatio="none" xmlns="http://www.w3.org/2000/svg" width="500" height="500" viewBox="0 0 500 500"><rect width="100%" height="100%" fill="#F5E7E0" fill-opacity="1"/><svg viewBox="42.0136 163.8295 332.148 157.9061" width="333" height="158.3111483435095" x="83.5px" y="170.8444px" xmlns="http://www.w3.org/2000/svg" xmlns:xlink="http://www.w3.org/1999/xlink" preserveAspectRatio="none"><defs></defs><style>.companyName {fill:#C66358;fill-opacity:1;}.icon1 {fill:#C66358;fill-opacity:1;}.icon2 {fill:#E3BBA7;fill-opacity:1;}.icon3 {fill:#985A55;fill-opacity:1;}.icon3-str {stroke:#985A55;stroke-opacity:1;}.text {fill:#C66358;fill-opacity:1;}</style><g opacity="1" transform="rotate(0 158.7913 163.8295)">
<svg width="98.5926" height="51.9061" x="158.7913" y="163.8295" version="1.1" preserveAspectRatio="none" viewBox="20 58 160 84.23521423339844">
  <g transform="matrix(1 0 0 1 0 0)"><g><path d="M158.929 110.472A50.137 50.137 0 0 1 180 117.06c-13.106 22.701-41.226 31.33-64.575 20.587 18.045-1.89 33.618-11.941 42.993-26.373l.34-.53.171-.272zm-10.159.209c-8.038 10.142-19.902 17.114-33.413 18.733a49.068 49.068 0 0 1 3.318-3.791 47.95 47.95 0 0 0 1.147-1.153c7.773-7.529 17.685-12.234 28.127-13.683l.821-.106zm-96.385-.329c10.215 1.487 19.905 6.092 27.557 13.412a58.804 58.804 0 0 0 1.6 1.598 48.631 48.631 0 0 1 2.499 2.825c-12.395-1.776-23.333-8.069-31.092-17.157l-.42-.498-.144-.18zm19.767-21.121c10.141 8.038 17.112 19.901 18.731 33.411a49.252 49.252 0 0 1-3.784-3.311c-.383-.393-.77-.78-1.164-1.159-7.527-7.772-12.23-17.683-13.679-28.123l-.09-.682-.014-.136zm55.496 1.683c-1.487 10.214-6.091 19.904-13.409 27.555a56.942 56.942 0 0 0-1.591 1.594 49.293 49.293 0 0 1-2.834 2.508c1.776-12.395 8.069-23.333 17.157-31.092l.498-.42.179-.145zm-27.562-8.05c4.768 11.919 4.955 25.553-.219 37.992-4.885-12.136-4.706-25.364-.18-37.004l.247-.622.152-.366zm59.548-3.421c0 8.158-1.941 15.862-5.387 22.674a58.787 58.787 0 0 0-22.713 4.842 58.834 58.834 0 0 0 4.814-21.817 50.117 50.117 0 0 1 23.286-5.699zM40.912 78.366c8.157 0 15.861 1.94 22.674 5.387a58.792 58.792 0 0 0 4.842 22.714 58.787 58.787 0 0 0-21.816-4.812 50.124 50.124 0 0 1-5.7-23.289zm80.511-19.835a50.136 50.136 0 0 1 6.652 21.949 58.795 58.795 0 0 0-16.43 15.791 58.778 58.778 0 0 0-6.73-22.395 50.114 50.114 0 0 1 16.508-15.345zM78.53 58c6.997 4.04 12.657 9.505 16.821 15.818a58.776 58.776 0 0 0-6.815 20.867 58.762 58.762 0 0 0-16.595-15.612A50.132 50.132 0 0 1 78.53 58z" data-color="1" class="icon1"></path><path d="M41.949 109.927l-.885.062A50.136 50.136 0 0 0 20 116.577c13.316 23.065 42.13 31.603 65.694 20.055-18.376-1.729-34.281-11.953-43.745-26.705z" data-color="2" class="icon2"></path><path opacity=".1" d="M119.822 124.47a47.95 47.95 0 0 1-1.147 1.153 49.068 49.068 0 0 0-3.318 3.791c13.511-1.619 25.375-8.591 33.413-18.733l-.821.106c-10.442 1.449-20.354 6.154-28.127 13.683z" data-color="2" class="icon2"></path><path opacity=".9" d="M52.949 111.03c7.759 9.088 18.697 15.381 31.092 17.157a48.631 48.631 0 0 0-2.499-2.825 58.804 58.804 0 0 1-1.6-1.598c-7.652-7.32-17.342-11.925-27.557-13.412l.144.18.42.498z" data-color="2" class="icon2"></path><path opacity=".7" d="M72.152 89.231l.014.136.09.682c1.449 10.44 6.152 20.351 13.679 28.123.394.379.781.766 1.164 1.159a49.252 49.252 0 0 0 3.784 3.311c-1.619-13.51-8.59-25.373-18.731-33.411z" data-color="2" class="icon2"></path><path opacity=".3" d="M127.469 91.059l-.498.42c-9.088 7.759-15.381 18.697-17.157 31.092a49.293 49.293 0 0 0 2.834-2.508 56.942 56.942 0 0 1 1.591-1.594c7.318-7.651 11.922-17.341 13.409-27.555l-.179.145z" data-color="2" class="icon2"></path><path opacity=".5" d="M99.934 83.23l-.247.622c-4.526 11.64-4.705 24.868.18 37.004 5.174-12.439 4.987-26.073.219-37.992l-.152.366z" data-color="2" class="icon2"></path><path opacity=".2" d="M136.348 85.142a58.834 58.834 0 0 1-4.814 21.817 58.787 58.787 0 0 1 22.713-4.842c3.446-6.812 5.387-14.516 5.387-22.674a50.117 50.117 0 0 0-23.286 5.699z" data-color="2" class="icon2"></path><path opacity=".8" d="M68.428 106.467a58.792 58.792 0 0 1-4.842-22.714c-6.813-3.447-14.517-5.387-22.674-5.387a50.124 50.124 0 0 0 5.7 23.289 58.787 58.787 0 0 1 21.816 4.812z" data-color="2" class="icon2"></path><path opacity=".4" d="M128.075 80.48a50.136 50.136 0 0 0-6.652-21.949 50.114 50.114 0 0 0-16.508 15.345 58.778 58.778 0 0 1 6.73 22.395 58.795 58.795 0 0 1 16.43-15.791z" data-color="2" class="icon2"></path><path opacity=".6" d="M78.53 58a50.132 50.132 0 0 0-6.589 21.073 58.762 58.762 0 0 1 16.595 15.612 58.776 58.776 0 0 1 6.815-20.867C91.187 67.505 85.527 62.04 78.53 58z" data-color="2" class="icon2"></path></g></g>
</svg>
</g><g opacity="1" transform="rotate(0 42.0136 301.7356)">
<svg width="332.148" height="20" x="42.0136" y="301.7356" version="1.1" preserveAspectRatio="none" viewBox="4.32 -29.2 627.64 37.8">
  <g transform="matrix(1 0 0 1 0 0)" class="text"><path id="id-6izo4zJp29" d="M21.04 0L13.84-10.96L7.52-10.96L7.52 0L4.32 0L4.32-26.40L14.32-26.40Q18.36-26.40 20.80-24.32Q23.24-22.24 23.24-18.68L23.24-18.68Q23.24-15.88 21.68-13.96Q20.12-12.04 17.40-11.32L17.40-11.32L24.84 0L21.04 0ZM7.52-23.40L7.52-13.96L14.28-13.96Q19.88-13.96 19.88-18.68L19.88-18.68Q19.88-23.40 14.28-23.40L14.28-23.40L7.52-23.40Z M48.80-11.04Q48.80-9.92 48.64-8.80L48.64-8.80L33.56-8.80Q33.84-5.76 35.58-4.08Q37.32-2.40 40.08-2.40L40.08-2.40Q42.28-2.40 43.74-3.16Q45.20-3.92 45.72-5.36L45.72-5.36L48.40-3.96Q47.20-1.84 45.20-0.72Q43.20 0.40 40.08 0.40L40.08 0.40Q35.56 0.40 32.98-2.36Q30.40-5.12 30.40-10L30.40-10Q30.40-14.88 32.86-17.64Q35.32-20.40 39.84-20.40L39.84-20.40Q42.64-20.40 44.68-19.16Q46.72-17.92 47.76-15.80Q48.80-13.68 48.80-11.04L48.80-11.04ZM39.84-17.60Q37.20-17.60 35.58-16.04Q33.96-14.48 33.60-11.64L33.60-11.64L45.72-11.64Q45.40-14.44 43.88-16.02Q42.36-17.60 39.84-17.60L39.84-17.60Z M69.56-20L72.92-20L64.60 0L61.40 0L53.08-20L56.72-20L63.04-3.24L69.56-20Z M80.72-23.84Q79.64-23.84 78.98-24.50Q78.32-25.16 78.32-26.24L78.32-26.24Q78.32-27.32 78.98-27.98Q79.64-28.64 80.72-28.64L80.72-28.64Q81.80-28.64 82.46-27.98Q83.12-27.32 83.12-26.24L83.12-26.24Q83.12-25.16 82.46-24.50Q81.80-23.84 80.72-23.84L80.72-23.84ZM82.32-20L82.32 0L79.12 0L79.12-20L82.32-20Z M102.88-4.08L104-1.40Q102 0.40 98.84 0.40L98.84 0.40Q96.40 0.40 94.86-0.92Q93.32-2.24 93.28-4.96L93.28-4.96L93.28-17.24L89.28-17.24L89.28-20L93.28-20L93.28-24.80L96.48-25.68L96.48-20L103.88-20L103.88-17.24L96.48-17.24L96.48-5.52Q96.48-4.08 97.30-3.34Q98.12-2.60 99.48-2.60L99.48-2.60Q101.40-2.60 102.88-4.08L102.88-4.08Z M126.92-2.32Q127.72-2.32 128.52-2.52L128.52-2.52L128.32 0Q127.20 0.40 125.92 0.40L125.92 0.40Q124.36 0.40 123.46-0.28Q122.56-0.96 122.32-2.56L122.32-2.56Q121.40-1.16 119.62-0.38Q117.84 0.40 115.88 0.40L115.88 0.40Q112.92 0.40 111.00-0.98Q109.08-2.36 109.08-4.96L109.08-4.96Q109.08-7.24 111.08-8.90Q113.08-10.56 116.88-11.20L116.88-11.20L122.20-12.08L122.20-13.20Q122.20-15.20 120.96-16.40Q119.72-17.60 117.52-17.60L117.52-17.60Q115.52-17.60 114.06-16.64Q112.60-15.68 111.80-13.80L111.80-13.80L109.44-15.52Q110.24-17.76 112.42-19.08Q114.60-20.40 117.52-20.40L117.52-20.40Q121.08-20.40 123.24-18.68Q125.40-16.96 125.40-13.60L125.40-13.60L125.40-3.76Q125.40-3.04 125.76-2.68Q126.12-2.32 126.92-2.32L126.92-2.32ZM116.04-2.40Q118.56-2.40 120.38-3.60Q122.20-4.80 122.20-6.72L122.20-6.72L122.20-9.48L117.72-8.64Q115.04-8.16 113.72-7.26Q112.40-6.36 112.40-4.96L112.40-4.96Q112.40-3.72 113.36-3.06Q114.32-2.40 116.04-2.40L116.04-2.40Z M138.20-29.20L138.20-5.36Q138.20-3.84 138.66-3.26Q139.12-2.68 140.36-2.68L140.36-2.68Q141.20-2.68 141.82-2.80Q142.44-2.92 143.28-3.24L143.28-3.24L142.76-0.16Q141.44 0.40 139.80 0.40L139.80 0.40Q137.36 0.40 136.18-0.92Q135-2.24 135-4.96L135-4.96L135-29.20L138.20-29.20Z M151-23.84Q149.92-23.84 149.26-24.50Q148.60-25.16 148.60-26.24L148.60-26.24Q148.60-27.32 149.26-27.98Q149.92-28.64 151-28.64L151-28.64Q152.08-28.64 152.74-27.98Q153.40-27.32 153.40-26.24L153.40-26.24Q153.40-25.16 152.74-24.50Q152.08-23.84 151-23.84L151-23.84ZM152.60-20L152.60 0L149.40 0L149.40-20L152.60-20Z M160.60 0L160.60-2.44L171.08-14.72L173.60-17.32L170.04-17.24L160.72-17.24L160.72-20L177.16-20L177.16-17.56L166.68-5.28L164.20-2.68L168.08-2.76L177.48-2.76L177.48 0L160.60 0Z M202.24-11.04Q202.24-9.92 202.08-8.80L202.08-8.80L187-8.80Q187.28-5.76 189.02-4.08Q190.76-2.40 193.52-2.40L193.52-2.40Q195.72-2.40 197.18-3.16Q198.64-3.92 199.16-5.36L199.16-5.36L201.84-3.96Q200.64-1.84 198.64-0.72Q196.64 0.40 193.52 0.40L193.52 0.40Q189 0.40 186.42-2.36Q183.84-5.12 183.84-10L183.84-10Q183.84-14.88 186.30-17.64Q188.76-20.40 193.28-20.40L193.28-20.40Q196.08-20.40 198.12-19.16Q200.16-17.92 201.20-15.80Q202.24-13.68 202.24-11.04L202.24-11.04ZM193.28-17.60Q190.64-17.60 189.02-16.04Q187.40-14.48 187.04-11.64L187.04-11.64L199.16-11.64Q198.84-14.44 197.32-16.02Q195.80-17.60 193.28-17.60L193.28-17.60Z M243.04-26.40L233.60-10.32L233.60 0L230.40 0L230.40-10.32L220.96-26.40L224.76-26.40L232-13.60L239.24-26.40L243.04-26.40Z M254.72-20.40Q259.24-20.40 261.82-17.64Q264.40-14.88 264.40-10L264.40-10Q264.40-5.12 261.82-2.36Q259.24 0.40 254.72 0.40L254.72 0.40Q250.20 0.40 247.62-2.36Q245.04-5.12 245.04-10L245.04-10Q245.04-14.88 247.62-17.64Q250.20-20.40 254.72-20.40L254.72-20.40ZM254.72-17.64Q251.68-17.64 249.96-15.60Q248.24-13.56 248.24-10L248.24-10Q248.24-6.44 249.96-4.40Q251.68-2.36 254.72-2.36L254.72-2.36Q257.76-2.36 259.48-4.40Q261.20-6.44 261.20-10L261.20-10Q261.20-13.56 259.48-15.60Q257.76-17.64 254.72-17.64L254.72-17.64Z M286.72-20L289.92-20L289.92 0L287.12 0L286.92-3.04Q284.92 0.40 279.76 0.40L279.76 0.40Q276.52 0.40 274.46-1.40Q272.40-3.20 272.40-6.92L272.40-6.92L272.40-20L275.60-20L275.60-7.76Q275.60-4.84 276.80-3.62Q278-2.40 280.32-2.40L280.32-2.40Q283.08-2.40 284.90-4.08Q286.72-5.76 286.72-9.12L286.72-9.12L286.72-20Z M308.80-20.40Q310.24-20.40 311-20L311-20L310.36-16.88Q309.40-17.40 307.84-17.40L307.84-17.40Q306.56-17.40 305.34-16.66Q304.12-15.92 303.34-14.42Q302.56-12.92 302.56-10.80L302.56-10.80L302.56 0L299.36 0L299.36-20L301.96-20L302.40-16.72Q304.08-20.40 308.80-20.40L308.80-20.40Z M358.52-26.40L358.52 0L355.48 0L355.48-16.60L355.84-23.56L355.80-23.56L347.12 0L344.40 0L335.72-23.56L335.68-23.56L336.04-16.60L336.04 0L333.00 0L333.00-26.40L337.92-26.40L343.72-10.36L345.72-3.76L345.80-3.76L347.84-10.32L353.60-26.40L358.52-26.40Z M370.16-23.84Q369.08-23.84 368.42-24.50Q367.76-25.16 367.76-26.24L367.76-26.24Q367.76-27.32 368.42-27.98Q369.08-28.64 370.16-28.64L370.16-28.64Q371.24-28.64 371.90-27.98Q372.56-27.32 372.56-26.24L372.56-26.24Q372.56-25.16 371.90-24.50Q371.24-23.84 370.16-23.84L370.16-23.84ZM371.76-20L371.76 0L368.56 0L368.56-20L371.76-20Z M390.92-20.40Q394.32-20.40 396.52-18.44Q398.72-16.48 398.72-12.80L398.72-12.80L398.72 0L395.52 0L395.52-11.68Q395.52-14.80 394.18-16.20Q392.84-17.60 390.60-17.60L390.60-17.60Q389.00-17.60 387.60-16.90Q386.20-16.20 385.30-14.62Q384.40-13.04 384.40-10.64L384.40-10.64L384.40 0L381.20 0L381.20-20L384.00-20L384.20-16.88Q385.20-18.68 386.96-19.54Q388.72-20.40 390.92-20.40L390.92-20.40Z M422.52-29.20L425.72-29.20L425.72 0L422.92 0L422.72-3.48Q421.84-1.72 420.02-0.66Q418.20 0.40 415.88 0.40L415.88 0.40Q411.68 0.40 409.22-2.38Q406.76-5.16 406.76-10L406.76-10Q406.76-14.84 409.22-17.62Q411.68-20.40 415.88-20.40L415.88-20.40Q418.08-20.40 419.82-19.44Q421.56-18.48 422.52-16.88L422.52-16.88L422.52-29.20ZM416.24-2.40Q419.12-2.40 420.82-4.40Q422.52-6.40 422.52-9.76L422.52-9.76L422.52-10.24Q422.52-13.60 420.82-15.60Q419.12-17.60 416.24-17.60L416.24-17.60Q413.32-17.60 411.64-15.54Q409.96-13.48 409.96-10L409.96-10Q409.96-6.52 411.64-4.46Q413.32-2.40 416.24-2.40L416.24-2.40Z M441.96 0.40Q439.08 0.40 436.76-0.74Q434.44-1.88 433.36-4.12L433.36-4.12L435.96-5.92Q436.64-4.16 438.32-3.28Q440.00-2.40 442.28-2.40L442.28-2.40Q444.64-2.40 445.88-3.24Q447.12-4.08 447.12-5.36L447.12-5.36Q447.12-6.52 445.96-7.22Q444.80-7.92 441.88-8.44L441.88-8.44Q439.00-8.96 437.32-9.70Q435.64-10.44 434.88-11.58Q434.12-12.72 434.12-14.40L434.12-14.40Q434.12-16.04 435.08-17.40Q436.04-18.76 437.84-19.58Q439.64-20.40 442.00-20.40L442.00-20.40Q445.20-20.40 447.14-19.22Q449.08-18.04 449.92-15.60L449.92-15.60L447.20-14Q446.56-15.92 445.26-16.76Q443.96-17.60 442.00-17.60L442.00-17.60Q440.04-17.60 438.68-16.72Q437.32-15.84 437.32-14.68L437.32-14.68Q437.32-13.36 438.50-12.64Q439.68-11.92 442.72-11.40L442.72-11.40Q446.88-10.72 448.60-9.36Q450.32-8 450.32-5.52L450.32-5.52Q450.32-3.80 449.30-2.46Q448.28-1.12 446.38-0.36Q444.48 0.40 441.96 0.40L441.96 0.40Z M475.40-11.04Q475.40-9.92 475.24-8.80L475.24-8.80L460.16-8.80Q460.44-5.76 462.18-4.08Q463.92-2.40 466.68-2.40L466.68-2.40Q468.88-2.40 470.34-3.16Q471.80-3.92 472.32-5.36L472.32-5.36L475.00-3.96Q473.80-1.84 471.80-0.72Q469.80 0.40 466.68 0.40L466.68 0.40Q462.16 0.40 459.58-2.36Q457.00-5.12 457.00-10L457.00-10Q457.00-14.88 459.46-17.64Q461.92-20.40 466.44-20.40L466.44-20.40Q469.24-20.40 471.28-19.16Q473.32-17.92 474.36-15.80Q475.40-13.68 475.40-11.04L475.40-11.04ZM466.44-17.60Q463.80-17.60 462.18-16.04Q460.56-14.48 460.20-11.64L460.20-11.64L472.32-11.64Q472.00-14.44 470.48-16.02Q468.96-17.60 466.44-17.60L466.44-17.60Z M494.00-4.08L495.12-1.40Q493.12 0.40 489.96 0.40L489.96 0.40Q487.52 0.40 485.98-0.92Q484.44-2.24 484.40-4.96L484.40-4.96L484.40-17.24L480.40-17.24L480.40-20L484.40-20L484.40-24.80L487.60-25.68L487.60-20L495.00-20L495.00-17.24L487.60-17.24L487.60-5.52Q487.60-4.08 488.42-3.34Q489.24-2.60 490.60-2.60L490.60-2.60Q492.52-2.60 494.00-4.08L494.00-4.08Z M535.36-26.40L535.36-23.40L526.16-23.40L526.16 0L522.96 0L522.96-23.40L513.76-23.40L513.76-26.40L535.36-26.40Z M546.40-20.40Q550.92-20.40 553.50-17.64Q556.08-14.88 556.08-10L556.08-10Q556.08-5.12 553.50-2.36Q550.92 0.40 546.40 0.40L546.40 0.40Q541.88 0.40 539.30-2.36Q536.72-5.12 536.72-10L536.72-10Q536.72-14.88 539.30-17.64Q541.88-20.40 546.40-20.40L546.40-20.40ZM546.40-17.64Q543.36-17.64 541.64-15.60Q539.92-13.56 539.92-10L539.92-10Q539.92-6.44 541.64-4.40Q543.36-2.36 546.40-2.36L546.40-2.36Q549.44-2.36 551.16-4.40Q552.88-6.44 552.88-10L552.88-10Q552.88-13.56 551.16-15.60Q549.44-17.64 546.40-17.64L546.40-17.64Z M578.84-29.20L582.04-29.20L582.04 0L579.24 0L579.04-3.48Q578.16-1.72 576.34-0.66Q574.52 0.40 572.20 0.40L572.20 0.40Q568 0.40 565.54-2.38Q563.08-5.16 563.08-10L563.08-10Q563.08-14.84 565.54-17.62Q568-20.40 572.20-20.40L572.20-20.40Q574.40-20.40 576.14-19.44Q577.88-18.48 578.84-16.88L578.84-16.88L578.84-29.20ZM572.56-2.40Q575.44-2.40 577.14-4.40Q578.84-6.40 578.84-9.76L578.84-9.76L578.84-10.24Q578.84-13.60 577.14-15.60Q575.44-17.60 572.56-17.60L572.56-17.60Q569.64-17.60 567.96-15.54Q566.28-13.48 566.28-10L566.28-10Q566.28-6.52 567.96-4.46Q569.64-2.40 572.56-2.40L572.56-2.40Z M607.88-2.32Q608.68-2.32 609.48-2.52L609.48-2.52L609.28 0Q608.16 0.40 606.88 0.40L606.88 0.40Q605.32 0.40 604.42-0.28Q603.52-0.96 603.28-2.56L603.28-2.56Q602.36-1.16 600.58-0.38Q598.80 0.40 596.84 0.40L596.84 0.40Q593.88 0.40 591.96-0.98Q590.04-2.36 590.04-4.96L590.04-4.96Q590.04-7.24 592.04-8.90Q594.04-10.56 597.84-11.20L597.84-11.20L603.16-12.08L603.16-13.20Q603.16-15.20 601.92-16.40Q600.68-17.60 598.48-17.60L598.48-17.60Q596.48-17.60 595.02-16.64Q593.56-15.68 592.76-13.80L592.76-13.80L590.40-15.52Q591.20-17.76 593.38-19.08Q595.56-20.40 598.48-20.40L598.48-20.40Q602.04-20.40 604.20-18.68Q606.36-16.96 606.36-13.60L606.36-13.60L606.36-3.76Q606.36-3.04 606.72-2.68Q607.08-2.32 607.88-2.32L607.88-2.32ZM597-2.40Q599.52-2.40 601.34-3.60Q603.16-4.80 603.16-6.72L603.16-6.72L603.16-9.48L598.68-8.64Q596-8.16 594.68-7.26Q593.36-6.36 593.36-4.96L593.36-4.96Q593.36-3.72 594.32-3.06Q595.28-2.40 597-2.40L597-2.40Z M631.96-20L622.56 3.36Q621.40 6.24 619.96 7.42Q618.52 8.60 616.24 8.60L616.24 8.60Q614.72 8.60 613.70 8.20Q612.68 7.80 611.84 6.92L611.84 6.92L612.96 4.20Q614.12 5.80 616.20 5.80L616.20 5.80Q617.36 5.80 618.26 5.10Q619.16 4.40 619.84 2.56L619.84 2.56L620.88-0.04L612.52-20L616.16-20L621.16-6.96L622.40-3.40L623.84-7.36L628.52-20L631.96-20Z"/></g>
</svg>
</g><g opacity="1" transform="rotate(0 43.7666 241.7356)">
<svg width="328.642" height="40" x="43.7666" y="241.7356" version="1.1" preserveAspectRatio="none" viewBox="1.2 -26.8 225.12 27.4">
  <g transform="matrix(1 0 0 1 0 0)" class="companyName"><path id="id-D6z1nYkh10" d="M30.16-22.40L30.16-21.60L28.16-21.60L28.16-0.80L30.16-0.80L30.16 0L20.16 0L20.16-0.80L22.16-0.80L22.16-20.12L14.24 0.40L13.32 0.40L4.44-20.68L4.44-0.80L7.64-0.80L7.64 0L1.24 0L1.24-0.80L3.64-0.80L3.64-21.60L1.20-21.60L1.20-22.40L10.12-22.40L16.36-7.40L22.16-22.40L30.16-22.40Z M52.36-0.80Q51.96-0.40 50.84-0.10Q49.72 0.20 48.24 0.20L48.24 0.20Q44.96 0.20 44.12-1.76L44.12-1.76Q42.12 0.32 38 0.32L38 0.32Q35.80 0.32 34.38-0.70Q32.96-1.72 32.96-3.72L32.96-3.72Q32.96-6.40 35.04-7.86Q37.12-9.32 42.32-9.92L42.32-9.92L43.92-10.12L43.92-12.08Q43.92-15.56 43.40-16.76Q42.88-17.96 41.34-17.96Q39.80-17.96 39.36-17.54Q38.92-17.12 39.04-16.58Q39.16-16.04 39.44-15.16Q39.72-14.28 39.72-13.76L39.72-13.76Q39.72-12.52 38.86-11.66Q38-10.80 36.78-10.80Q35.56-10.80 34.68-11.66Q33.80-12.52 33.80-13.76L33.80-13.76Q33.80-15.80 35.90-17.26Q38-18.72 42.18-18.72Q46.36-18.72 48.14-17.08Q49.92-15.44 49.92-11.28L49.92-11.28L49.92-4.08Q49.92-1.96 50.44-1.42Q50.96-0.88 52.36-1.20L52.36-1.20L52.36-0.80ZM38.52-4.52Q38.72-3 39.64-2.18Q40.56-1.36 41.78-1.36Q43-1.36 43.92-2.56L43.92-2.56L43.92-9.36L42.48-9.16Q40.64-8.92 39.50-7.76Q38.36-6.60 38.52-4.52L38.52-4.52Z M75.76-11.12L75.76-0.80L77.76-0.80L77.76 0L67.76 0L67.76-0.80L69.76-0.80L69.76-12Q69.76-14.84 68.92-16.04Q68.08-17.24 66.40-17.24L66.40-17.24Q64.12-17.24 62.76-14.84L62.76-14.84L62.76-0.80L64.76-0.80L64.76 0L54.76 0L54.76-0.80L56.76-0.80L56.76-17.60L54.76-17.60L54.76-18.40L62.76-18.40L62.76-16.32Q63.52-17.36 65.14-18.10Q66.76-18.84 68.64-18.84L68.64-18.84Q75.76-18.84 75.76-11.12L75.76-11.12Z M99.96-0.80Q99.56-0.40 98.44-0.10Q97.32 0.20 95.84 0.20L95.84 0.20Q92.56 0.20 91.72-1.76L91.72-1.76Q89.72 0.32 85.60 0.32L85.60 0.32Q83.40 0.32 81.98-0.70Q80.56-1.72 80.56-3.72L80.56-3.72Q80.56-6.40 82.64-7.86Q84.72-9.32 89.92-9.92L89.92-9.92L91.52-10.12L91.52-12.08Q91.52-15.56 91-16.76Q90.48-17.96 88.94-17.96Q87.40-17.96 86.96-17.54Q86.52-17.12 86.64-16.58Q86.76-16.04 87.04-15.16Q87.32-14.28 87.32-13.76L87.32-13.76Q87.32-12.52 86.46-11.66Q85.60-10.80 84.38-10.80Q83.16-10.80 82.28-11.66Q81.40-12.52 81.40-13.76L81.40-13.76Q81.40-15.80 83.50-17.26Q85.60-18.72 89.78-18.72Q93.96-18.72 95.74-17.08Q97.52-15.44 97.52-11.28L97.52-11.28L97.52-4.08Q97.52-1.96 98.04-1.42Q98.56-0.88 99.96-1.20L99.96-1.20L99.96-0.80ZM86.12-4.52Q86.32-3 87.24-2.18Q88.16-1.36 89.38-1.36Q90.60-1.36 91.52-2.56L91.52-2.56L91.52-9.36L90.08-9.16Q88.24-8.92 87.10-7.76Q85.96-6.60 86.12-4.52L86.12-4.52Z M111.16-0.32L111.16-0.32Q115.32-0.32 115.32-2.60L115.32-2.60Q115.32-3.88 113.88-4.70Q112.44-5.52 110.40-6.04Q108.36-6.56 106.38-7.24Q104.40-7.92 103.10-9.40Q101.80-10.88 102.04-13.28Q102.28-15.68 104.50-17.24Q106.72-18.80 109.98-18.80Q113.24-18.80 115.24-17.76Q117.24-16.72 117.48-14.96L117.48-14.96Q117.64-13.88 117.14-12.96Q116.64-12.04 115.50-12Q114.36-11.96 113.62-12.60Q112.88-13.24 112.92-14.08Q112.96-14.92 113.56-15.58Q114.16-16.24 114.16-16.64L114.16-16.64Q114.16-17.32 112.86-17.66Q111.56-18 109.86-18Q108.16-18 107.08-17.24Q106.00-16.48 106.00-15.36Q106.00-14.24 107.34-13.44Q108.68-12.64 110.60-12.14Q112.52-11.64 114.42-11.02Q116.32-10.40 117.66-9.04Q119-7.68 119-5.60L119-5.60Q119-2.84 117.04-1.18Q115.08 0.48 111.12 0.48Q107.16 0.48 104.70-0.72Q102.24-1.92 102.00-3.80L102.00-3.80Q101.84-4.88 102.36-5.80Q102.88-6.72 104.00-6.76Q105.12-6.80 105.86-6.16Q106.60-5.52 106.56-4.68Q106.52-3.84 105.92-3.18Q105.32-2.52 105.32-2.12L105.32-2.12Q105.32-1.32 107.18-0.82Q109.04-0.32 111.16-0.32Z M122.96 0L122.96 0L122.16 0L122.16-9.32L122.96-9.32Q122.96-5.56 125.66-2.92Q128.36-0.28 132.24-0.28L132.24-0.28Q133.84-0.28 134.82-1.22Q135.80-2.16 135.80-3.72L135.80-3.72Q135.80-5.48 133.52-6.72L133.52-6.72Q132.28-7.36 129.24-8.74Q126.20-10.12 124.96-11.08L124.96-11.08Q122.48-13 122.78-16.16Q123.08-19.32 125.16-21.06Q127.24-22.80 129.86-22.80Q132.48-22.80 134.58-22.10Q136.68-21.40 136.96-21.40L136.96-21.40Q137.76-21.40 137.76-22.80L137.76-22.80L138.56-22.80L138.56-15.48L137.76-15.48Q137.76-18.36 135.64-20.18Q133.52-22 130.20-22L130.20-22Q128.72-22 127.88-21.14Q127.04-20.28 127.04-19.24Q127.04-18.20 127.32-17.64Q127.60-17.08 128.30-16.62Q129-16.16 129.52-15.88Q130.04-15.60 131.18-15.12Q132.32-14.64 132.76-14.44L132.76-14.44Q134.96-13.44 135.36-13.26Q135.76-13.08 136.52-12.68Q137.28-12.28 137.66-11.96Q138.04-11.64 138.64-11.16Q139.24-10.68 139.52-10.18Q139.80-9.68 140.08-9.04L140.08-9.04Q140.64-7.76 140.48-6.04L140.48-6.04Q140.16-2.80 138.06-1.10Q135.96 0.60 132.40 0.60L132.40 0.60Q129.20 0.60 126.04-1.04L126.04-1.04Q124.96-1.60 124.44-1.60L124.44-1.60Q122.96-1.60 122.96 0Z M161.36-8L161.36-8L149.28-8Q149.68-0.96 154.76-0.96L154.76-0.96Q156.12-0.96 157.86-1.60Q159.60-2.24 160.40-3.40L160.40-3.40L160.96-3Q160.08-1.52 157.96-0.56Q155.84 0.40 153.74 0.40Q151.64 0.40 149.96-0.02Q148.28-0.44 146.68-1.44Q145.08-2.44 144.18-4.44Q143.28-6.44 143.28-9.28L143.28-9.28Q143.28-14.12 145.96-16.46Q148.64-18.80 152.46-18.80Q156.28-18.80 158.82-16.24Q161.36-13.68 161.36-8ZM149.24-9.24L149.24-8.80L155.76-8.80Q155.76-12.48 154.98-15.24Q154.20-18 152.48-18Q150.76-18 150.00-15.34Q149.24-12.68 149.24-9.24L149.24-9.24Z M176.28-17.60L171.64-17.60L171.64-7.84Q171.64-4.40 171.92-3.66Q172.20-2.92 172.52-2.40L172.52-2.40Q173.12-1.36 174.62-1.36Q176.12-1.36 176.72-1.76L176.72-1.76L176.72-0.96Q174.80 0.40 172.52 0.40L172.52 0.40Q169.16 0.40 167.40-1.20Q165.64-2.80 165.64-6.92L165.64-6.92L165.64-17.60L162.68-17.60L162.68-18.40L165.64-18.40Q167.56-18.72 169.04-20.26Q170.52-21.80 171.08-24.52L171.08-24.52L171.64-24.52L171.64-18.40L176.28-18.40L176.28-17.60Z M199.72-11.12L199.72-0.80L201.72-0.80L201.72 0L191.72 0L191.72-0.80L193.72-0.80L193.72-12Q193.72-14.84 192.88-16.04Q192.04-17.24 190.36-17.24L190.36-17.24Q188.08-17.24 186.72-14.84L186.72-14.84L186.72-0.80L188.72-0.80L188.72 0L178.72 0L178.72-0.80L180.72-0.80L180.72-26L178.72-26L178.72-26.80L186.72-26.80L186.72-16.32Q187.48-17.40 189.08-18.12Q190.68-18.84 192.60-18.84L192.60-18.84Q199.72-18.84 199.72-11.12L199.72-11.12Z M226.32 0L218.32 0L218.32-2.12Q217.56-1.04 215.94-0.30Q214.32 0.44 212.44 0.44L212.44 0.44Q205.32 0.44 205.32-7.28L205.32-7.28L205.32-17.60L203.32-17.60L203.32-18.40L211.32-18.40L211.32-6.40Q211.32-3.56 212.16-2.36Q213-1.16 214.68-1.16L214.68-1.16Q216.92-1.16 218.32-3.56L218.32-3.56L218.32-17.60L216.32-17.60L216.32-18.40L224.32-18.40L224.32-0.80L226.32-0.80L226.32 0Z"/></g>
</svg>
</g></svg></svg>